<?xml version="1.0" standalone="no"?>
<!DOCTYPE svg PUBLIC "-//W3C//DTD SVG 20010904//EN"
 "http://www.w3.org/TR/2001/REC-SVG-20010904/DTD/svg10.dtd">
<svg version="1.0" xmlns="http://www.w3.org/2000/svg"
 width="340.000000pt" height="340.000000pt" viewBox="0 0 340.000000 340.000000"
 preserveAspectRatio="xMidYMid meet">
<metadata>
Created by potrace 1.14, written by Peter Selinger 2001-2017
</metadata>
<g transform="translate(0.000000,340.000000) scale(0.100000,-0.100000)"
fill="#000000" stroke="none">
<path d="M1570 3029 c-19 -6 -42 -13 -50 -16 -8 -3 -23 -7 -32 -9 -9 -2 -112
-31 -230 -65 -117 -34 -259 -74 -315 -89 -56 -16 -117 -33 -135 -39 -32 -11
-423 -121 -443 -125 -65 -14 -135 -41 -135 -53 0 -12 28 -173 45 -263 3 -13 7
-42 11 -65 3 -22 14 -85 24 -140 11 -55 26 -140 34 -190 18 -103 22 -129 36
-205 41 -227 52 -287 55 -305 1 -11 5 -33 8 -50 4 -16 9 -50 13 -75 3 -24 7
-47 9 -50 2 -4 6 -28 10 -54 3 -27 7 -52 10 -55 2 -4 6 -27 9 -52 3 -24 8 -55
11 -69 11 -58 15 -77 20 -113 5 -34 24 -67 39 -67 3 0 39 -20 79 -45 41 -25
80 -45 86 -45 6 0 11 -4 11 -8 0 -5 12 -15 27 -23 16 -7 46 -25 68 -38 22 -14
43 -24 48 -23 4 1 7 -2 7 -6 0 -5 12 -14 28 -21 15 -7 43 -23 62 -35 76 -49
95 -60 103 -58 4 1 7 -2 7 -8 0 -5 4 -10 9 -10 5 0 57 -29 116 -65 59 -36 109
-65 111 -65 2 0 35 -20 74 -45 39 -25 72 -45 74 -45 2 0 58 -32 123 -71 65
-40 132 -80 148 -89 17 -9 83 -49 148 -89 110 -66 147 -82 147 -63 0 4 12 21
28 37 15 17 47 55 72 85 25 30 52 64 62 75 40 49 136 165 165 201 18 22 46 56
61 75 58 68 148 177 182 219 19 24 42 51 50 60 8 9 33 38 54 65 22 28 44 55
50 60 6 6 29 33 51 60 21 28 42 52 45 55 3 3 24 28 46 55 42 50 47 68 69 220
4 22 8 47 10 55 3 8 7 38 10 65 3 28 10 73 15 100 6 28 19 111 31 185 11 74
24 158 29 185 5 28 12 70 15 95 3 25 10 70 15 100 5 30 12 73 15 95 3 22 8 51
11 65 2 14 6 36 9 50 3 13 7 42 10 65 7 45 43 276 50 316 18 104 19 102 -50
113 -16 3 -46 8 -65 11 -19 3 -47 8 -62 10 -16 3 -40 7 -55 10 -67 11 -90 14
-123 20 -19 4 -48 8 -65 11 -16 2 -39 5 -50 8 -11 2 -40 7 -65 11 -25 4 -54 9
-65 11 -10 2 -37 6 -60 9 -22 3 -47 8 -55 10 -8 3 -35 7 -59 10 -24 3 -47 7
-50 9 -3 2 -31 7 -61 11 -30 3 -62 8 -70 10 -8 3 -35 7 -59 10 -23 3 -46 7
-50 9 -3 2 -26 7 -51 10 -25 3 -54 8 -65 10 -11 2 -42 7 -70 11 -82 13 -85 13
-210 34 -66 11 -122 20 -125 20 -3 0 -21 -5 -40 -10z"/>
</g>
</svg>
